<?xml version="1.0" encoding="utf-8"?>
<!-- Generator: Adobe Illustrator 16.0.0, SVG Export Plug-In . SVG Version: 6.00 Build 0)  -->
<!DOCTYPE svg PUBLIC "-//W3C//DTD SVG 1.1//EN" "http://www.w3.org/Graphics/SVG/1.1/DTD/svg11.dtd">
<svg version="1.1" id="Layer_1" xmlns="http://www.w3.org/2000/svg" xmlns:xlink="http://www.w3.org/1999/xlink" x="0px" y="0px"
	 width="100px" height="48px" viewBox="0 0 100 48" enable-background="new 0 0 100 48" xml:space="preserve">
<title>visa-logo</title>
<desc>Created with Sketch.</desc>
<g id="g10" transform="matrix(1.25,0,0,-1.25,0,60)">
	<g id="g12" transform="scale(0.1,0.1)">
		<path id="path14" fill="#F59511" d="M593,314.652c0-63.301-51.195-114.699-114.398-114.699S364.203,251.25,364.203,314.652
			c0,63.398,51.195,114.699,114.398,114.699S593,378.051,593,314.652L593,314.652"/>
		<path id="path16" fill="#EA1C24" d="M451.805,314.652c0-63.301-51.203-114.699-114.406-114.699
			C274.203,199.953,223,251.25,223,314.652c0,63.398,51.203,114.699,114.398,114.699
			C400.602,429.351,451.805,378.051,451.805,314.652L451.805,314.652"/>
		<path id="path18" fill="#F14D1C" d="M408,404.953c-26.695-21-43.797-53.602-43.797-90.301c0-36.598,17.102-69.301,43.797-90.301
			c26.703,21,43.805,53.602,43.805,90.301S434.703,383.953,408,404.953"/>
		<path id="path20" fill="#F59511" d="M586,253.851v3.398h1.398v0.703h-3.5v-0.703h1.406v-3.398H586z M592.805,253.851v4.102h-1.102
			l-1.203-2.805l-1.195,2.805h-1.102v-4.102H589v3.102l1.203-2.703H591l1.203,2.703v-3.102H592.805"/>
		<path id="path22" fill="#707070" d="M248.398,143.25h-6.5v30.305h6.406v-3.703c0,0,5.594,4.5,8.898,4.5
			c6.5-0.102,10.297-5.602,10.297-5.602s3.102,5.602,10.203,5.602c10.398,0,12-9.5,12-9.5v-21.398H283.5v18.797
			c0,0,0,5.703-6.695,5.703c-7,0-7.602-5.703-7.602-5.703v-18.797h-6.5v19c0,0-0.602,6-6.5,6c-7.602,0-7.805-6.102-7.805-6.102
			V143.25"/>
		<path id="path24" fill="#707070" d="M445.898,174.351c-3.297,0.102-8.898-4.5-8.898-4.5v3.703h-6.398v-30.203h6.5l-0.102,19
			c0,0,0.102,6.102,7.805,6.102c1.398,0,2.5-0.305,3.398-0.898l0,0l2.102,5.898C449,173.953,447.5,174.351,445.898,174.351"/>
		<path id="path26" fill="#707070" d="M537.398,174.351c-3.297,0.102-8.898-4.5-8.898-4.5v3.703h-6.398v-30.203h6.5l-0.102,19
			c0,0,0.102,6.102,7.805,6.102c1.398,0,2.5-0.305,3.398-0.898l0,0l2.102,5.898C540.398,173.953,539,174.351,537.398,174.351
			L537.398,174.351"/>
		<path id="path28" fill="#707070" d="M311.898,168.351c5.203,0,9.5-4.5,9.5-10.102s-4.195-10.102-9.5-10.102
			c-5.195,0-9.398,4.5-9.398,10.102C302.398,163.75,306.703,168.351,311.898,168.351z M310.602,174.453
			c-9.703,0-14.898-8.703-14.898-16c0-7.5,5.898-16.102,15.195-16.102c5.406,0,9.906,4,9.906,4v-3.102h6.398v30.305h-6.398v-3.805
			C320.805,169.75,316.602,174.453,310.602,174.453L310.602,174.453"/>
		<path id="path30" fill="#707070" d="M498.305,168.351c5.195,0,9.5-4.5,9.5-10.102s-4.203-10.102-9.5-10.102
			c-5.203,0-9.406,4.5-9.406,10.102C488.898,163.75,493.102,168.351,498.305,168.351z M497.102,174.453
			c-9.703,0-14.898-8.703-14.898-16c0-7.5,5.898-16.102,15.195-16.102c5.406,0,9.906,4,9.906,4v-3.102h6.398v30.305h-6.398v-3.805
			C507.203,169.75,503,174.453,497.102,174.453L497.102,174.453"/>
		<path id="path32" fill="#707070" d="M559.703,168.351c5.195,0,9.5-4.5,9.5-10.102s-4.203-10.102-9.5-10.102
			c-5.305,0-9.398,4.5-9.398,10.102C550.305,163.75,554.5,168.351,559.703,168.351z M558.398,174.453
			c-9.695,0-14.898-8.703-14.898-16c0-7.5,5.898-16.102,15.203-16.102c5.398,0,9.898,4,9.898,4v-3.102H575v42.305h-6.398V169.75
			C568.602,169.75,564.398,174.453,558.398,174.453L558.398,174.453"/>
		<path id="path34" fill="#707070" d="M346.703,142.25c-6.602,0-12.703,4.102-12.703,4.102l2.805,4.297c0,0,5.797-2.695,9.898-2.695
			c2.695,0,7.195,0.898,7.297,3.602c0.102,2.797-7.602,3.695-7.602,3.695S335,155.453,335,164.851c0,5.898,5.703,9.703,13,9.703
			c4.203,0,12.102-3.703,12.102-3.703l-3.203-5c0,0-6.094,2.398-9.297,2.5c-2.703,0.102-6-1.203-6-3.602c0-6.398,19,0.5,19-12.5
			C360.602,143.851,352.805,142.25,346.703,142.25L346.703,142.25"/>
		<path id="path36" fill="#707070" d="M371.102,182.351v-8.797h-5.703v-6.406h5.703v-15.195c0,0-0.5-10.305,10.602-10.305
			c3.102,0,9.102,2.305,9.102,2.305l-2.602,6.602c0,0-2.398-2-5.102-2c-5.102,0.094-5,3.398-5,3.398v15.195h10.602v6.406h-10.602
			v8.797H371.102"/>
		<path id="path38" fill="#707070" d="M408.602,168.148c0.203,0,0.5,0,0.797,0c7.805,0,7.703-7.398,7.703-7.398h-15.797
			C401.398,160.851,401,167.75,408.602,168.148z M409.602,174.148c-10.398,0-15.602-8.594-15.602-16
			c0-7.695,4.703-16.297,16.203-16.297c4.898,0,11.797,4.297,11.797,4.297l-3,5.203c0,0-4.695-3.297-8.797-3.297
			c-8.305,0-8.805,8.094-8.805,8.094h22.203C423.602,156.055,425.203,174.148,409.602,174.148"/>
		<path id="path40" fill="#707070" d="M475.5,151.351l3-5.898c0,0-4.695-3.102-10-3.102c-10.898,0-17,8.203-17,16
			c0,12.203,9.703,15.797,16.203,15.797c5.898,0,11.102-3.398,11.102-3.398l-3.305-5.898c0,0-2,3.203-7.898,3.203s-9-5.102-9-9.906
			c0-5.398,3.602-10,9.102-10C471.898,148.148,475.5,151.351,475.5,151.351L475.5,151.351"/>
		<path id="path42" fill="#707070" d="M588.602,145.351c0.203,0,0.297,0,0.398-0.102s0.102-0.195,0.102-0.297s0-0.203-0.102-0.305
			c-0.102-0.094-0.195-0.094-0.398-0.094h-0.703v0.797H588.602z M588.602,145.851h-1.297v-2.797h0.594v1.094h0.305l0.898-1.094
			h0.703l-0.906,1.094c0.305,0,0.5,0.102,0.703,0.305c0.203,0.195,0.203,0.297,0.203,0.602c0,0.297-0.102,0.5-0.305,0.695
			C589.203,145.75,588.898,145.851,588.602,145.851z M588.398,142.055c-0.695,0-1.297,0.195-1.695,0.695
			c-0.398,0.398-0.703,1-0.703,1.703c0,0.695,0.203,1.195,0.703,1.695c0.398,0.406,1,0.703,1.695,0.703
			c0.703,0,1.203-0.203,1.703-0.703c0.398-0.398,0.703-1,0.703-1.695c0-0.703-0.203-1.203-0.703-1.703
			S589.102,142.055,588.398,142.055z M588.398,147.453c-0.898,0-1.594-0.305-2.195-0.898c-0.602-0.602-0.898-1.305-0.898-2.203
			s0.297-1.602,0.898-2.203c0.602-0.594,1.297-0.898,2.195-0.898c0.906,0,1.602,0.305,2.203,0.898
			c0.602,0.602,0.898,1.305,0.898,2.203s-0.297,1.602-0.898,2.203C590,147.148,589.305,147.453,588.398,147.453"/>
	</g>
</g>
</svg>
