<?xml version="1.0" encoding="iso-8859-1"?>
<!-- Generator: Adobe Illustrator 16.0.0, SVG Export Plug-In . SVG Version: 6.00 Build 0)  -->
<!DOCTYPE svg PUBLIC "-//W3C//DTD SVG 1.1//EN" "http://www.w3.org/Graphics/SVG/1.1/DTD/svg11.dtd">
<svg version="1.1" id="Layer_1" xmlns="http://www.w3.org/2000/svg" xmlns:xlink="http://www.w3.org/1999/xlink" x="0px" y="0px"
	 width="30px" height="30px" viewBox="0 0 30 30" style="enable-background:new 0 0 30 30;" xml:space="preserve">
<g>
	<path style="fill:#FFFFFF;" d="M28.288,14.515h-1.866V9.6c0-0.849-0.693-1.54-1.546-1.54h-5.008V4.286
		c0-0.852-0.691-1.545-1.544-1.545H1.73c-0.849,0-1.54,0.693-1.54,1.545v17.869c0,0.852,0.691,1.545,1.54,1.545h4.619
		c0.237,1.891,1.852,3.36,3.807,3.36c1.954,0,3.569-1.47,3.805-3.36h3.833c0.893,0,1.791,0.004,2.685,0.008
		c0.24,1.888,1.854,3.353,3.805,3.353c1.941,0,3.546-1.449,3.801-3.321c0.068,0,0.137,0.002,0.204,0.002
		c0.852,0,1.545-0.693,1.545-1.545v-6.142C29.833,15.206,29.14,14.515,28.288,14.515z M10.156,26.019c-1.543,0-2.8-1.256-2.8-2.8
		c0-1.543,1.256-2.799,2.8-2.799s2.798,1.256,2.798,2.799C12.954,24.763,11.699,26.019,10.156,26.019z M13.949,22.659
		c-0.273-1.852-1.868-3.278-3.793-3.278c-1.927,0-3.521,1.427-3.794,3.278H1.73c-0.28,0-0.5-0.222-0.5-0.505V4.286
		c0-0.283,0.22-0.505,0.5-0.505h16.594c0.278,0,0.505,0.227,0.505,0.505v18.376c-0.345-0.001-0.691-0.003-1.035-0.003H13.949z
		 M24.283,26.019c-1.543,0-2.8-1.256-2.8-2.8c0-1.543,1.257-2.799,2.8-2.799c1.544,0,2.799,1.256,2.799,2.799
		C27.082,24.763,25.827,26.019,24.283,26.019z M28.793,22.195c0,0.278-0.226,0.504-0.505,0.504c-0.068,0-0.137-0.001-0.205-0.001
		c-0.256-1.871-1.859-3.317-3.8-3.317c-1.929,0-3.525,1.432-3.795,3.286c-0.206,0-0.412-0.001-0.62-0.002V9.101h5.008
		c0.279,0,0.505,0.224,0.505,0.5v5.955h2.907c0.279,0,0.505,0.224,0.505,0.499V22.195z"/>
	<circle style="fill:#FFFFFF;" cx="10.155" cy="23.22" r="1.3"/>
	<circle style="fill:#FFFFFF;" cx="24.283" cy="23.22" r="1.3"/>
</g>
</svg>
