<?xml version="1.0" encoding="iso-8859-1"?>
<!-- Generator: Adobe Illustrator 16.0.0, SVG Export Plug-In . SVG Version: 6.00 Build 0)  -->
<!DOCTYPE svg PUBLIC "-//W3C//DTD SVG 1.1//EN" "http://www.w3.org/Graphics/SVG/1.1/DTD/svg11.dtd">
<svg version="1.1" id="Layer_1" xmlns="http://www.w3.org/2000/svg" xmlns:xlink="http://www.w3.org/1999/xlink" x="0px" y="0px"
	 width="30px" height="30px" viewBox="0 0 30 30" style="enable-background:new 0 0 30 30;" xml:space="preserve">
<path style="fill:#FFFFFF;" d="M15,0.084c-5.493,0-10.474,2.991-13.088,7.729V1.954c0-0.345-0.279-0.624-0.624-0.624
	S0.665,1.609,0.665,1.954v8.102h8.103c0.344,0,0.623-0.279,0.623-0.624c0-0.344-0.279-0.623-0.623-0.623H2.785
	C5.117,4.237,9.812,1.331,15,1.331c7.561,0,13.713,6.151,13.713,13.711c0,7.562-6.152,13.712-13.713,13.712
	c-7.561,0-13.711-6.15-13.711-13.712c0-0.344-0.279-0.623-0.624-0.623s-0.623,0.279-0.623,0.623C0.042,23.29,6.752,30,15,30
	c8.249,0,14.959-6.71,14.959-14.958C29.959,6.794,23.248,0.084,15,0.084z"/>
</svg>
