<?xml version="1.0" encoding="iso-8859-1"?>
<!-- Generator: Adobe Illustrator 16.0.0, SVG Export Plug-In . SVG Version: 6.00 Build 0)  -->
<!DOCTYPE svg PUBLIC "-//W3C//DTD SVG 1.1//EN" "http://www.w3.org/Graphics/SVG/1.1/DTD/svg11.dtd">
<svg version="1.1" id="Layer_1" xmlns="http://www.w3.org/2000/svg" xmlns:xlink="http://www.w3.org/1999/xlink" x="0px" y="0px"
	 width="30px" height="30px" viewBox="0 0 30 30" style="enable-background:new 0 0 30 30;" xml:space="preserve">
<g>
	<g>
		<path style="fill:#FFFFFF;" d="M21.504,29.123L21.504,29.123c-2.6,0-7.854-0.864-13.842-6.658
			c-3.581-3.466-5.815-7.19-6.641-11.068c-0.609-2.861-0.24-4.909-0.074-5.594C0.899,5.327,1.006,4.854,1.267,4.394
			C1.743,3.53,2.896,2.092,3.591,1.495C4.673,0.563,5.67,0.686,6.528,1.853l4.543,6.195c0.602,0.832,0.448,1.993-0.343,2.589
			l-2.272,1.721c-0.096,0.075-0.206,0.139-0.327,0.189c-0.319,1.39,0.968,3.507,3.923,6.458c2.329,2.328,3.936,2.816,4.875,2.816
			c0.274,0,0.478-0.045,0.609-0.086c0.048-0.145,0.115-0.277,0.201-0.397l1.646-2.329c0.341-0.476,0.9-0.756,1.497-0.756
			c0.385,0,0.755,0.114,1.074,0.332l6.339,4.338c0.604,0.411,0.934,0.858,1.007,1.36c0.074,0.5-0.106,1.012-0.552,1.563
			c-0.571,0.717-1.97,1.916-2.82,2.42c-0.438,0.262-0.891,0.383-1.337,0.367C24.107,28.841,23.042,29.123,21.504,29.123z
			 M4.969,1.861c-0.202,0-0.452,0.126-0.74,0.375C3.624,2.755,2.541,4.109,2.121,4.871C1.949,5.174,1.885,5.472,1.928,5.761
			L1.942,5.86L1.917,5.957C1.712,6.74,0.156,13.837,8.342,21.762c5.74,5.555,10.71,6.384,13.162,6.384
			c1.573,0,2.534-0.319,2.771-0.441l0.132-0.068l0.147,0.016c0.283,0.032,0.573-0.045,0.873-0.224
			c0.745-0.442,2.061-1.568,2.558-2.192c0.262-0.325,0.378-0.597,0.348-0.808c-0.033-0.217-0.23-0.451-0.592-0.697l-6.338-4.337
			c-0.393-0.269-0.967-0.175-1.226,0.185l-1.644,2.326c-0.05,0.07-0.082,0.155-0.097,0.256l-0.035,0.235l-0.206,0.117
			c-0.152,0.088-0.578,0.288-1.27,0.288c-1.123,0-3-0.539-5.565-3.104c-3.505-3.5-4.765-5.875-4.085-7.704l0.091-0.245l0.254-0.06
			c0.099-0.024,0.178-0.059,0.239-0.106l2.277-1.725c0.37-0.278,0.433-0.832,0.143-1.233L5.74,2.432
			C5.32,1.861,5.056,1.861,4.969,1.861z"/>
	</g>
	<path style="fill:#FFFFFF;" d="M23.001,16.061c-0.209,0-0.402-0.135-0.468-0.345c-1.222-3.928-4.3-6.99-8.234-8.191
		c-0.258-0.08-0.404-0.352-0.324-0.61c0.078-0.258,0.35-0.404,0.61-0.325c4.245,1.295,7.565,4.599,8.883,8.836
		c0.08,0.258-0.064,0.532-0.322,0.612C23.097,16.053,23.049,16.061,23.001,16.061z"/>
	<path style="fill:#FFFFFF;" d="M26.962,16.27c-0.233,0-0.438-0.166-0.481-0.403C25.4,9.907,20.893,5.155,14.995,3.76
		c-0.262-0.063-0.425-0.326-0.363-0.588c0.063-0.264,0.322-0.428,0.589-0.364c6.276,1.484,11.073,6.542,12.223,12.884
		c0.048,0.267-0.129,0.52-0.395,0.57C27.019,16.266,26.989,16.27,26.962,16.27z"/>
</g>
</svg>
