<?xml version="1.0" encoding="iso-8859-1"?>
<!-- Generator: Adobe Illustrator 16.0.0, SVG Export Plug-In . SVG Version: 6.00 Build 0)  -->
<!DOCTYPE svg PUBLIC "-//W3C//DTD SVG 1.1//EN" "http://www.w3.org/Graphics/SVG/1.1/DTD/svg11.dtd">
<svg version="1.1" id="Layer_1" xmlns="http://www.w3.org/2000/svg" xmlns:xlink="http://www.w3.org/1999/xlink" x="0px" y="0px"
	 width="30px" height="30px" viewBox="0 0 30 30" style="enable-background:new 0 0 30 30;" xml:space="preserve">
<path style="fill:#FFFFFF;" d="M29.897,18.558L23.52,8.422c-0.074-0.117-0.195-0.194-0.333-0.211
	c-0.137-0.017-0.274,0.027-0.375,0.123l-2.486,2.354l-4.463-4.891c-0.09-0.098-0.217-0.152-0.35-0.15
	c-0.133,0.002-0.258,0.062-0.343,0.163l-6.22,7.351l-2.322-0.97c-0.179-0.074-0.385-0.029-0.517,0.113L0.432,18.46
	c-0.181,0.195-0.228,0.474-0.121,0.718c0.107,0.243,0.349,0.396,0.615,0.396h12.252c0.001,0,0.002,0,0.002,0
	c0.001,0,0.002,0,0.003,0h16.146c0.244,0,0.47-0.127,0.587-0.341C30.034,19.02,30.027,18.765,29.897,18.558z M15.534,6.806
	l4.067,4.458l-4.349,2.034c-0.104,0.048-0.186,0.127-0.23,0.233l-2.149,5.121h-0.72l-2.519-4.88L15.534,6.806z M6.57,13.16
	l2.181,0.907l2.365,4.585H1.499L6.57,13.16z M13.873,18.651l1.931-4.6l4.594-2.145c0.107-0.05,0.186-0.135,0.229-0.237l2.411-2.288
	l5.836,9.27H13.873z"/>
</svg>
