<?xml version="1.0" encoding="iso-8859-1"?>
<!-- Generator: Adobe Illustrator 16.0.0, SVG Export Plug-In . SVG Version: 6.00 Build 0)  -->
<!DOCTYPE svg PUBLIC "-//W3C//DTD SVG 1.1//EN" "http://www.w3.org/Graphics/SVG/1.1/DTD/svg11.dtd">
<svg version="1.1" id="Layer_1" xmlns="http://www.w3.org/2000/svg" xmlns:xlink="http://www.w3.org/1999/xlink" x="0px" y="0px"
	 width="30px" height="30px" viewBox="0 0 30 30" style="enable-background:new 0 0 30 30;" xml:space="preserve">
<g>
	<path style="fill:#FFFFFF;" d="M29.775,3.441c-0.004-0.025-0.014-0.048-0.021-0.073c-0.008-0.021-0.012-0.042-0.021-0.061
		c-0.002-0.006-0.004-0.012-0.006-0.018l0,0c0-0.001-0.002-0.001-0.002-0.002c-0.016-0.028-0.035-0.051-0.057-0.077
		c-0.008-0.009-0.012-0.021-0.021-0.031c0-0.001-0.002-0.002-0.004-0.003c-0.004-0.003-0.008-0.007-0.012-0.01
		c-0.016-0.015-0.035-0.024-0.055-0.036c-0.021-0.016-0.041-0.035-0.066-0.047c-0.004-0.001-0.008-0.002-0.012-0.003
		c-0.023-0.011-0.051-0.013-0.076-0.02s-0.053-0.016-0.082-0.018c-0.02-0.001-0.037,0.005-0.057,0.006
		c-0.02,0.001-0.041,0.003-0.061,0.007c-0.008,0.001-0.014,0-0.021,0.002s-0.016,0.002-0.023,0.004c-0.002,0-0.002,0-0.004,0
		l-28.627,9.15c-0.178,0.056-0.305,0.215-0.321,0.402s0.081,0.365,0.247,0.452l9.676,5.078l-0.381,8.952
		c-0.008,0.199,0.111,0.381,0.296,0.453c0.055,0.021,0.112,0.031,0.168,0.031c0.134,0,0.266-0.059,0.356-0.166l6.241-7.45
		l8.191,5.568c0.08,0.053,0.17,0.08,0.264,0.08c0.059,0,0.119-0.012,0.176-0.036c0.145-0.06,0.252-0.188,0.281-0.343L29.771,3.59
		c0.004-0.021,0-0.041,0.002-0.061c0.002-0.023,0.004-0.044,0.002-0.067C29.775,3.456,29.775,3.448,29.775,3.441z M16.383,19.048
		l-5.63,6.721l0.327-7.664L15.119,15l11.482-8.823l-3.311,4.17L16.383,19.048z M24.955,24.364l-7.537-5.124l7.477-9.418l3.621-4.562
		L24.955,24.364z"/>
</g>
</svg>
