<?xml version="1.0" encoding="iso-8859-1"?>
<!-- Generator: Adobe Illustrator 16.0.0, SVG Export Plug-In . SVG Version: 6.00 Build 0)  -->
<!DOCTYPE svg PUBLIC "-//W3C//DTD SVG 1.1//EN" "http://www.w3.org/Graphics/SVG/1.1/DTD/svg11.dtd">
<svg version="1.1" id="Layer_1" xmlns="http://www.w3.org/2000/svg" xmlns:xlink="http://www.w3.org/1999/xlink" x="0px" y="0px"
	 width="30px" height="30px" viewBox="0 0 30 30" style="enable-background:new 0 0 30 30;" xml:space="preserve">
<path style="fill:#FFFFFF;" d="M15,0.292C6.889,0.292,0.291,6.89,0.291,15c0,8.109,6.598,14.709,14.709,14.709
	c8.108,0,14.708-6.6,14.708-14.709C29.708,6.89,23.108,0.292,15,0.292z M28.493,12.486c-0.039,0.066-0.068,0.138-0.07,0.219
	c-0.049,0.861-0.896,2.119-1.402,2.871l-0.176,0.26c-0.391,0.592-0.57,1.576-0.729,2.445c-0.092,0.494-0.178,0.963-0.279,1.234
	c-0.154,0.406-0.492,0.875-0.781,1.195c0.041-0.186,0.105-0.398,0.191-0.607c0.271-0.65-0.137-1.248-0.436-1.682
	c-0.121-0.178-0.246-0.357-0.281-0.473c-0.008-0.029-1.018-2.933-1.633-3.093c-0.16-0.042-2.133-0.326-2.768-0.118
	c-0.348,0.115-1.318,0.068-1.799-0.35c-0.295-0.257-0.5-1.244-0.609-2.938l-0.012-0.185c-0.012-0.175,0.129-0.305,0.428-0.542
	c0.221-0.173,0.447-0.353,0.576-0.618l0.057-0.122c0.064-0.136,0.172-0.365,0.27-0.396c0.543,0.096,0.959-0.109,1.135-0.217
	c0.25-0.064,0.555,0.07,1.018,0.289c0.439,0.207,0.936,0.441,1.549,0.52c0.863,0.109,1.15,0.018,1.621-0.171
	c0.217-0.087,0.484-0.194,0.949-0.309c0.766-0.188,0.986-0.585,1.037-0.884c0.133-0.805-0.861-1.454-0.869-1.46
	c-0.4-0.26-0.842-0.015-1.229,0.202c-0.186,0.104-0.375,0.21-0.533,0.258c-0.127,0.038-0.17,0.027-0.432-0.076
	c-0.234-0.092-0.557-0.218-1.074-0.302c-0.354-0.058-0.373-0.126-0.434-0.351c-0.055-0.196-0.135-0.491-0.449-0.67
	c-0.188-0.107-0.371-0.134-0.545-0.079c-0.254,0.082-0.355,0.299-0.41,0.416c-0.063,0.133-0.102,0.22-0.344,0.291
	c-0.32,0.092-0.535,0.2-0.711,0.287c-0.281,0.141-0.381,0.189-0.809,0.082c0.086-0.106,0.205-0.236,0.289-0.327
	c0.074-0.078,0.145-0.156,0.213-0.233c0.449-0.517,1.391-1.86,1.674-2.699c0.148-0.443,0.104-0.792-0.129-1.04
	c-0.373-0.396-1.016-0.288-1.654-0.113c-0.355,0.097-0.383,0.081-0.6-0.045c-0.182-0.105-0.428-0.25-0.859-0.377
	c-0.365-0.109-0.422-0.378-0.395-1.083c0-0.025,0-0.046,0.002-0.07C22.827,2.295,27.431,6.776,28.493,12.486z M11.463,1.737
	c0.387,0.829,0.813,2.205,0.546,2.684c-0.109,0.197-0.077,0.391,0.004,0.574c-0.362-0.007-0.756,0.025-1.028,0.277
	c-1.371,1.273-3.988,4.354-4.109,5.394c-0.01,0.088-0.024,0.162-0.04,0.226c-0.27-0.432-0.698-0.962-1.245-1.14
	C5.232,9.635,4.869,9.678,4.537,9.875c-0.872,0.516-1.186,1.621-1.045,2.445c0.096,0.559,0.408,0.944,0.834,1.029
	c0.441,0.086,0.793-0.045,1.041-0.168c0.014,0.182,0.056,0.428,0.172,0.764c0.109,0.322,0.143,0.637,0.144,0.889
	c-0.709-0.248-1.564-0.602-1.884-0.878c-0.251-0.218-0.348-0.579-0.441-0.929c-0.096-0.356-0.195-0.727-0.459-0.953
	c-0.207-0.273-0.412-1.945-0.342-2.794c0.002-0.02-0.006-0.037-0.006-0.056C4.25,5.575,7.506,2.792,11.463,1.737z M1.271,15
	c0-1.207,0.158-2.377,0.451-3.493c0.102,0.567,0.263,1.071,0.514,1.29c0.058,0.053,0.128,0.313,0.174,0.485
	c0.113,0.421,0.268,0.999,0.746,1.414c0.705,0.612,2.602,1.198,2.814,1.263l0.004,0.002c-0.26,0.945-0.27,2.313-0.268,2.33
	c0.055,0.789,0.791,2.141,2.277,3.242c0.802,0.594,0.735,1.297,0.664,2.041c-0.024,0.264-0.049,0.512-0.031,0.752
	c0.045,0.643,0.4,1.461,0.743,2.252c0.161,0.371,0.313,0.723,0.411,1.006c0.016,0.047,0.037,0.086,0.055,0.129
	C4.814,25.666,1.271,20.74,1.271,15z M10.751,27.086c0.009,0.131,0.017,0.25,0.024,0.359c-0.028-0.055-0.055-0.111-0.076-0.178
	c-0.109-0.32-0.27-0.689-0.439-1.08c-0.296-0.682-0.631-1.455-0.664-1.93c-0.012-0.16,0.008-0.369,0.029-0.59
	c0.076-0.797,0.189-1.998-1.055-2.922c-1.244-0.922-1.852-2.029-1.885-2.523c-0.037-0.523,0.158-1.834,0.301-2.252
	c0.354-0.117,1.133-0.41,1.596-0.826c0.021-0.02,0.109-0.082,0.34-0.082c0.461,0,1.209,0.262,1.84,0.846
	c1.037,0.959,1.999,1.781,3.27,2.086c0.434,0.104,0.807,0.141,1.105,0.17c0.217,0.023,0.51,0.053,0.578,0.125
	c0.027,0.102,0.029,0.102-0.156,0.297c-0.143,0.15-0.318,0.338-0.453,0.623c-0.063,0.135-0.162,0.406-0.313,0.814
	c-0.434,1.186-1.588,4.334-2.381,4.889c-0.258,0.182-0.477,0.314-0.658,0.426C11.045,25.775,10.678,26.051,10.751,27.086z
	 M15,28.729c-1.1,0-2.166-0.135-3.189-0.379c-0.006-0.131-0.023-0.52-0.082-1.332c-0.034-0.492-0.034-0.492,0.539-0.844
	c0.194-0.119,0.429-0.264,0.707-0.459c0.965-0.676,1.92-3.117,2.738-5.354c0.127-0.344,0.236-0.641,0.281-0.738
	c0.065-0.141,0.163-0.244,0.276-0.361c0.225-0.238,0.566-0.598,0.391-1.234c-0.195-0.713-0.849-0.779-1.427-0.838
	c-0.283-0.027-0.605-0.063-0.977-0.148c-1.039-0.252-1.862-0.957-2.83-1.852c-0.725-0.674-1.709-1.107-2.506-1.107
	c-0.408,0-0.754,0.115-0.996,0.332c-0.305,0.274-0.927,0.519-1.268,0.633c0.018-0.369-0.007-0.881-0.191-1.42
	c-0.133-0.385-0.128-0.566-0.124-0.698c0.005-0.179,0.013-0.448-0.286-0.708c-0.375-0.324-0.785-0.102-1.004,0.019
	C4.84,12.355,4.698,12.422,4.552,12.4c-0.04-0.033-0.138-0.242-0.104-0.611c0.033-0.369,0.205-0.844,0.588-1.07
	c0.091-0.054,0.163-0.063,0.251-0.035c0.357,0.115,0.779,0.766,0.966,1.189l0.123,0.283l0.308,0.012
	c0.04,0.003,1.002,0.023,1.166-1.391c0.063-0.543,2.15-3.254,3.781-4.771c0.096-0.048,0.441-0.029,0.606-0.02
	c0.313,0.017,0.563,0.031,0.776-0.093l0.197-0.138l0.049-0.199c0.065-0.272-0.081-0.509-0.236-0.761
	c-0.021-0.035-0.045-0.07-0.064-0.103c0.351-0.976-0.225-2.501-0.52-3.177C13.27,1.358,14.125,1.273,15,1.273
	c0.361,0,0.719,0.018,1.073,0.045c0,0.046-0.002,0.092-0.004,0.142c-0.023,0.6-0.064,1.716,1.096,2.06
	c0.318,0.095,0.492,0.195,0.645,0.285c0.363,0.211,0.652,0.335,1.354,0.144c0.299-0.083,0.486-0.112,0.598-0.12
	c-0.002,0.004-0.002,0.009-0.004,0.014c-0.219,0.647-1.039,1.854-1.484,2.369c-0.059,0.068-0.125,0.138-0.189,0.208
	c-0.357,0.382-0.76,0.815-0.611,1.316c0.088,0.305,0.352,0.515,0.779,0.624c0.74,0.189,1.076,0.063,1.506-0.15
	c0.154-0.076,0.311-0.154,0.547-0.223c0.285-0.083,0.486-0.208,0.629-0.34c0.131,0.299,0.408,0.643,1.121,0.759
	c0.414,0.068,0.66,0.164,0.875,0.248c0.299,0.117,0.607,0.236,1.068,0.102c0.266-0.08,0.514-0.219,0.732-0.341
	c0.094-0.052,0.225-0.125,0.313-0.164c0.137,0.114,0.287,0.285,0.328,0.386c-0.039,0.025-0.125,0.07-0.295,0.111
	c-0.529,0.131-0.846,0.258-1.076,0.35c-0.361,0.145-0.482,0.191-1.135,0.109c-0.459-0.059-0.863-0.249-1.252-0.434
	c-0.57-0.27-1.162-0.549-1.82-0.311l-0.125,0.068c-0.008,0.005-0.195,0.136-0.457,0.09c-0.818-0.144-1.135,0.539-1.326,0.946
	l-0.055,0.114c-0.029,0.061-0.191,0.188-0.297,0.271c-0.34,0.268-0.85,0.67-0.799,1.382l0.01,0.179
	c0.102,1.537,0.283,3.039,0.945,3.615c0.777,0.678,2.119,0.75,2.75,0.541c0.268-0.086,1.586,0.037,2.076,0.111
	c0.264,0.439,0.938,1.98,1.078,2.449c0.078,0.262,0.246,0.508,0.408,0.746c0.182,0.264,0.408,0.592,0.342,0.752
	c-0.055,0.131-0.523,1.303-0.234,1.926c0.084,0.184,0.23,0.316,0.41,0.373c0.059,0.018,0.115,0.027,0.176,0.027
	c0.809,0,1.826-1.576,2.061-2.191c0.135-0.355,0.227-0.865,0.326-1.406c0.133-0.738,0.301-1.656,0.58-2.078l0.172-0.254
	c0.27-0.4,0.598-0.895,0.887-1.417c0.002,0.098,0.008,0.194,0.008,0.292C28.728,22.57,22.569,28.729,15,28.729z"/>
</svg>
